<svg width="24" height="24" viewBox="0 0 24 24" fill="none" xmlns="http://www.w3.org/2000/svg">
<mask id="mask0_7_536" style="mask-type:alpha" maskUnits="userSpaceOnUse" x="0" y="0" width="24" height="24">
<rect y="7.62939e-06" width="24" height="24" fill="#D9D9D9"/>
</mask>
<g mask="url(#mask0_7_536)">
<path d="M11.95 18C12.3 18 12.5958 17.8792 12.8375 17.6375C13.0792 17.3958 13.2 17.1 13.2 16.75C13.2 16.4 13.0792 16.1042 12.8375 15.8625C12.5958 15.6208 12.3 15.5 11.95 15.5C11.6 15.5 11.3042 15.6208 11.0625 15.8625C10.8208 16.1042 10.7 16.4 10.7 16.75C10.7 17.1 10.8208 17.3958 11.0625 17.6375C11.3042 17.8792 11.6 18 11.95 18ZM11.05 14.15H12.9C12.9 13.6 12.9625 13.1667 13.0875 12.85C13.2125 12.5333 13.5667 12.1 14.15 11.55C14.5833 11.1167 14.925 10.7042 15.175 10.3125C15.425 9.92084 15.55 9.45001 15.55 8.90001C15.55 7.96667 15.2083 7.25001 14.525 6.75001C13.8417 6.25001 13.0333 6.00001 12.1 6.00001C11.15 6.00001 10.3792 6.25001 9.7875 6.75001C9.19583 7.25001 8.78333 7.85001 8.55 8.55001L10.2 9.20001C10.2833 8.90001 10.4708 8.57501 10.7625 8.22501C11.0542 7.87501 11.5 7.70001 12.1 7.70001C12.6333 7.70001 13.0333 7.84584 13.3 8.13751C13.5667 8.42917 13.7 8.75001 13.7 9.10001C13.7 9.43334 13.6 9.74584 13.4 10.0375C13.2 10.3292 12.95 10.6 12.65 10.85C11.9167 11.5 11.4667 11.9917 11.3 12.325C11.1333 12.6583 11.05 13.2667 11.05 14.15ZM12 22C10.6167 22 9.31667 21.7375 8.1 21.2125C6.88333 20.6875 5.825 19.975 4.925 19.075C4.025 18.175 3.3125 17.1167 2.7875 15.9C2.2625 14.6833 2 13.3833 2 12C2 10.6167 2.2625 9.31667 2.7875 8.10001C3.3125 6.88334 4.025 5.82501 4.925 4.92501C5.825 4.02501 6.88333 3.31251 8.1 2.78751C9.31667 2.26251 10.6167 2.00001 12 2.00001C13.3833 2.00001 14.6833 2.26251 15.9 2.78751C17.1167 3.31251 18.175 4.02501 19.075 4.92501C19.975 5.82501 20.6875 6.88334 21.2125 8.10001C21.7375 9.31667 22 10.6167 22 12C22 13.3833 21.7375 14.6833 21.2125 15.9C20.6875 17.1167 19.975 18.175 19.075 19.075C18.175 19.975 17.1167 20.6875 15.9 21.2125C14.6833 21.7375 13.3833 22 12 22ZM12 20C14.2333 20 16.125 19.225 17.675 17.675C19.225 16.125 20 14.2333 20 12C20 9.76667 19.225 7.87501 17.675 6.32501C16.125 4.77501 14.2333 4.00001 12 4.00001C9.76667 4.00001 7.875 4.77501 6.325 6.32501C4.775 7.87501 4 9.76667 4 12C4 14.2333 4.775 16.125 6.325 17.675C7.875 19.225 9.76667 20 12 20Z" fill="color"/>
</g>
</svg>
