<svg width="24" height="24" viewBox="0 0 24 24" fill="none" xmlns="http://www.w3.org/2000/svg">
<mask id="mask0_7_532" style="mask-type:alpha" maskUnits="userSpaceOnUse" x="0" y="0" width="24" height="24">
<rect y="7.62939e-06" width="24" height="24" fill="#D9D9D9"/>
</mask>
<g mask="url(#mask0_7_532)">
<path d="M4 20C3.45 20 2.97917 19.8042 2.5875 19.4125C2.19583 19.0208 2 18.55 2 18V6.00001C2 5.45001 2.19583 4.97917 2.5875 4.58751C2.97917 4.19584 3.45 4.00001 4 4.00001H20C20.55 4.00001 21.0208 4.19584 21.4125 4.58751C21.8042 4.97917 22 5.45001 22 6.00001V18C22 18.55 21.8042 19.0208 21.4125 19.4125C21.0208 19.8042 20.55 20 20 20H4ZM12 13L4 8.00001V18H20V8.00001L12 13ZM12 11L20 6.00001H4L12 11ZM4 8.00001V6.00001V18V8.00001Z" fill="color"/>
</g>
</svg>
