<svg width="16" height="16" viewBox="0 0 16 16" fill="none" xmlns="http://www.w3.org/2000/svg">
<path fill-rule="evenodd" clip-rule="evenodd" d="M8.98407 0.0101572C8.66977 0.00319692 8.34193 0 8 0C6.59997 0 5.43618 0.0535945 4.47094 0.19967C4.42747 0.475468 4.4049 0.758314 4.4049 1.0465C4.4049 2.89464 5.33342 4.52332 6.74418 5.48099C8.15494 4.52331 9.08346 2.89464 9.08346 1.0465C9.08346 0.691908 9.04928 0.345399 8.98407 0.0101572ZM0.307847 3.8897C0.738453 1.85671 1.69594 0.836282 3.63161 0.362793C3.80927 1.21281 3.69033 2.0382 3.22638 2.69743C2.61314 3.56878 1.52547 3.96745 0.307847 3.8897ZM12.9179 0.52094C12.0862 0.24123 11.0427 0.0962291 9.7384 0.0355623C9.71019 0.598954 9.84376 1.18467 10.1213 1.73173C11.2529 1.82479 12.3194 1.40726 12.9179 0.52094ZM14.9179 1.94441C15.589 5.64709 12.1247 8.84102 8.47207 7.98385C7.80094 4.28117 11.4215 1.21328 14.9179 1.94441ZM15.8553 4.90311C15.9596 5.78424 16 6.81703 16 8.02584C16 8.20394 15.9992 8.37821 15.9974 8.54875C15.3197 8.47355 14.6637 8.24266 14.0813 7.87612C14.2564 6.69936 14.8796 5.61826 15.8553 4.90311ZM0.0201998 9.38964C0.00621997 8.96201 0 8.50792 0 8.02584C0 7.81627 0.00121314 7.612 0.00376242 7.41289C0.105608 7.42804 0.206821 7.45327 0.306449 7.48913C0.907042 7.70528 1.30741 8.25627 1.42276 8.91601C1.01647 9.26512 0.513161 9.44366 0.0201998 9.38964ZM6.13746 8.19013C3.56055 9.49249 0.504131 7.67638 0.181387 4.79979C2.7583 3.49743 5.81472 5.31354 6.13746 8.19013ZM15.98 9.38385C15.8199 14.3093 14.6324 15.7289 10.0686 15.9992C7.72937 11.6485 11.4033 8.37976 15.98 9.38385ZM5.94454 16C1.69577 15.7507 0.366946 14.5102 0.0707721 10.3849C4.31309 8.63103 8.09794 11.9141 5.94454 16Z" fill="url(#paint0_radial_71_1572)"/>
<defs>
<radialGradient id="paint0_radial_71_1572" cx="0" cy="0" r="1" gradientUnits="userSpaceOnUse" gradientTransform="translate(8 18.0041) rotate(-90) scale(17.598)">
<stop offset="0.225" stop-color="#FFCC17"/>
<stop offset="0.7" stop-color="#6CC918"/>
</radialGradient>
</defs>
</svg>
